<?xml version="1.0" encoding="utf-8"?>
<!-- Generator: Adobe Illustrator 25.2.1, SVG Export Plug-In . SVG Version: 6.00 Build 0)  -->
<svg version="1.1" id="Layer_1" xmlns="http://www.w3.org/2000/svg" xmlns:xlink="http://www.w3.org/1999/xlink" x="0px" y="0px"
	 viewBox="0 0 1152 316.8" style="enable-background:new 0 0 1152 316.8;" xml:space="preserve">
<style type="text/css">
	.st0{fill:#EF5323;}
	.st1{fill:#2CA2DB;}
	.st2{fill:#7FB842;}
	.st3{fill:#FBB315;}
	.st4{fill:#FFFFFF;}
</style>
<g>
	<g>
		<path class="st0" d="M157.3,217.5c-26.4,0-48,21.4-48,48c0,21.7,14.1,40.2,34.6,46c1.1-1.3,1.8-2.9,1.8-4.7c0-2-0.7-3.8-2.2-5.1
			c-7.1-7.1-7.1-18.8,0-25.9c3.3-3.3,8-5.4,13-5.4s9.6,2,13,5.4c7.1,7.1,7.1,18.8,0,25.9c-2.9,2.9-2.9,7.4,0,10.3
			c20.8-5.4,35.7-24.6,35.7-46.5C205.3,238.9,183.7,217.5,157.3,217.5z"/>
		<path class="st1" d="M264.3,110.5c-26.4,0-48,21.4-48,48c0,26.4,21.4,48,48,48c21.9,0,40.9-15,46.5-35.7c-1.1-0.9-2.7-1.3-4.2-1.3
			c-2,0-3.8,0.7-5.1,2.2c-3.3,3.3-8,5.4-13,5.4s-9.6-2-13-5.4c-3.3-3.3-5.4-8-5.4-13c0-4.9,2-9.6,5.4-13c3.3-3.3,8-5.4,13-5.4
			s9.6,2,13,5.4c1.3,1.3,3.1,2.2,5.1,2.2c1.6,0,2.9-0.4,4.2-1.3C305.2,125.5,286.2,110.5,264.3,110.5z"/>
		<path class="st2" d="M50.4,206.5c26.4,0,48-21.4,48-48c0-26.4-21.4-48-48-48c-21.7,0-40.9,15-46.5,35.7c1.3,1.3,3.1,2,5.1,2
			s3.8-0.7,5.1-2.2c3.3-3.3,8-5.4,13-5.4c4.9,0,9.6,2,13,5.4c7.1,7.1,7.1,18.8,0,25.9c-3.3,3.3-8,5.4-13,5.4c-4.9,0-9.6-2-13-5.4
			c-1.3-1.3-3.1-2.2-5.1-2.2c-1.8,0-3.3,0.7-4.7,1.8C10.2,192.2,28.9,206.5,50.4,206.5z"/>
		<path class="st3" d="M157.3,99.6c26.4,0,48-21.4,48-48c0-21.4-14.1-40.2-34.6-46l-0.2,0.2c-1.3,1.3-2.2,3.1-2.2,5.1
			c0,2,0.7,3.8,2.2,5.1c7.1,7.1,7.1,18.8,0,25.9c-3.3,3.3-8,5.4-13,5.4s-9.6-2-13-5.4s-5.4-8-5.4-13s2-9.6,5.4-13
			c2.9-2.9,2.9-7.4,0-10.3l-0.2-0.2c-20.5,5.8-34.8,24.6-34.8,46C109.3,78.1,131,99.6,157.3,99.6z"/>
		<path class="st4" d="M264.3,217.5c-32.6,0-59-26.4-59-59c0-32.6,26.4-59,59-59c26.4,0,48-21.4,48-48c0-8.3-2.2-16.3-6.3-23.7
			c-4,0-7.1,3.3-7.1,7.4c0,10-8.3,18.3-18.3,18.3c-10,0-18.3-8.3-18.3-18.3s8.3-18.3,18.3-18.3c4,0,7.1-3.1,7.4-7.1
			c-7.1-4-15.4-6.3-23.7-6.3c-26.4,0-48,21.4-48,48c0,32.6-26.4,59-59,59s-59-26.4-59-59c0-26.4-21.4-48-48-48
			c-8.9,0-17.4,2.5-25,6.9c0.4,3.6,3.6,6.3,7.1,6.3c10,0,18.3,8.3,18.3,18.3s-8.3,18.3-18.3,18.3S14.2,45.1,14.2,35
			c0-3.6-2.5-6.5-5.8-7.1c-4,7.1-6,15.2-6,23.4c0,26.4,21.4,48,48,48c32.6,0,59,26.4,59,59c0,32.6-26.4,59-59,59
			c-26.4,0-48,21.4-48,48c0,8.7,2.5,17.2,6.9,24.6c2.9-0.9,5.1-3.8,5.1-6.9c0-10,8.3-18.3,18.3-18.3S51,272.9,51,282.9
			c0,10-8.3,18.3-18.3,18.3c-3.3,0-6,2.2-6.9,5.1c7.4,4.5,15.9,6.9,24.6,6.9c26.4,0,48-21.4,48-48c0-32.6,26.4-59,59-59
			s59,26.4,59,59c0,26.4,21.4,48,48,48c8.3,0,16.3-2,23.4-6c-0.7-3.3-3.6-5.8-7.1-5.8c-10,0-18.3-8.3-18.3-18.3
			c0-10,8.3-18.3,18.3-18.3c10,0,18.3,8.3,18.3,18.3c0,3.8,2.7,6.7,6.3,7.1c4.7-7.6,6.9-16.1,6.9-25
			C312.1,238.9,290.7,217.5,264.3,217.5z M179.2,180.8c-1.6,1.6-3.3,2.2-5.4,2.5c-3.8,0.2-7.6-2-8.9-5.6c-0.9-2.2-0.7-4.7,0.2-6.9
			c0.2-0.4,0.2-0.4-0.2-0.7c-2.7-2.7-5.1-5.1-7.8-7.8l-0.2-0.2l-0.2,0.2c-2.7,2.7-5.1,5.1-7.8,7.8c-0.2,0.2-0.2,0.2,0,0.7
			c0.7,1.3,0.9,2.7,0.9,4c-0.2,2.9-1.3,5.1-3.6,6.7c-1.1,0.9-2.5,1.6-4,1.6c-4.7,0.7-9.2-2.7-9.8-7.1c-0.4-3.1,0.4-5.8,2.7-8
			c1.6-1.6,3.6-2.2,5.8-2.5c1.3,0,2.7,0.2,4,0.9c0.2,0.2,0.2,0.2,0.4,0c2.7-2.7,5.4-5.4,7.8-7.8c0,0,0-0.2,0.2-0.2
			c-2.9-2.9-5.6-5.6-8.3-8.3c-0.2,0.2-0.7,0.2-1.1,0.4c-3.3,1.1-6.3,0.4-8.9-1.8c-1.6-1.6-2.5-3.3-2.7-5.6c-0.2-2.5,0.4-4.7,2-6.5
			c1.6-1.8,3.6-2.9,5.8-3.1c3.6-0.2,6.5,1.1,8.3,4.2c0.9,1.3,1.3,2.9,1.3,4.7c0,1.3-0.2,2.5-0.9,3.6c-0.2,0.2-0.2,0.2,0,0.7
			c2.7,2.7,5.1,5.1,7.8,7.8l0.2,0.2c0.2,0,0.2-0.2,0.4-0.2c2.5-2.5,4.9-4.9,7.4-7.4c0.2-0.2,0.2-0.2,0.4-0.4c0.2-0.2,0.2-0.2,0-0.4
			c-0.4-0.9-0.7-1.6-0.7-2.5c-0.4-3.6,0.7-6.3,3.6-8.5c4.9-3.6,12.1-1.1,13.6,4.9c1.3,4.9-1.8,9.8-6.7,10.9
			c-1.8,0.4-3.6,0.2-5.1-0.4c-0.2,0-0.2,0-0.4-0.2c-0.2,0-0.2,0-0.2,0l-0.2,0.2c-2.7,2.7-5.1,5.1-7.8,7.8l-0.2,0.2
			c0.2-0.2,0.4,0,0.4,0c2.7,2.7,5.4,5.4,7.8,7.8c0.2,0.2,0.2,0.2,0.4,0c2.7-1.1,5.4-1.1,7.8,0.2c2.7,1.3,4.2,3.6,4.5,6.7
			C182.3,176.4,181.5,178.8,179.2,180.8z"/>
	</g>
	<g>
		<g>
			<path class="st4" d="M660.2,105.2c3.4,0,4.5,1.6,3.4,4.8l-48.3,131.1c-0.8,2.3-2.5,3.4-5.1,3.4h-33c-2.7,0-4.4-1.1-5.1-3.4
				l-30.7-80.7l-30.7,80.7c-0.8,2.3-2.5,3.4-5.1,3.4h-32.7c-2.7,0-4.4-1.1-5.1-3.4l-48.3-131.1c-1.1-3.2,0-4.8,3.4-4.8h33.5
				c2.5,0,4.2,1.1,5.1,3.4l29,85.9l30.1-85.9c0.6-1.7,1.5-2.7,2.8-2.8c0.8-0.4,1.5-0.6,2.3-0.6h31.6c0.8,0,1.5,0.2,2.3,0.6
				c1.3,0.2,2.3,1.1,2.8,2.8l30.4,85.9l28.7-85.9c0.8-2.3,2.5-3.4,5.1-3.4H660.2z"/>
			<path class="st4" d="M809.4,105.2c2.8,0,4.3,1.4,4.3,4.3v130.8c0,2.8-1.4,4.3-4.3,4.3h-31c-2.5,0-3.9-1.4-4.3-4.3l-0.9-10.2
				c-10.8,12.1-24.1,18.2-39.8,18.2c-19.1,0-35.1-7.1-47.9-21.2c-12.8-14.1-19.2-31.4-19.2-51.9c0-20.5,6.4-37.8,19.2-51.9
				c12.8-14.1,28.8-21.2,47.9-21.2c15.4,0,28.6,6.4,39.8,19l0.9-11.7c0.4-2.8,1.8-4.3,4.3-4.3H809.4z M738.9,209.3
				c8.9,0,16.3-3.4,22.3-10.1c6-6.7,9-14.8,9-24.3c0-9.3-3-17.3-9-24c-6-6.7-13.4-10.1-22.3-10.1c-9.1,0-16.6,3.3-22.6,9.8
				c-6,6.5-9,14.6-9,24.3c0,9.9,3,18.1,9,24.6C722.3,206,729.8,209.3,738.9,209.3z"/>
			<path class="st4" d="M977.4,37c2.8,0,4.3,1.4,4.3,4.3v199c0,2.8-1.4,4.3-4.3,4.3h-31c-2.5,0-3.9-1.4-4.3-4.3l-0.9-10.2
				c-10.8,12.1-24.1,18.2-39.8,18.2c-19.1,0-35.1-7.1-47.9-21.2c-12.8-14.1-19.2-31.4-19.2-51.9c0-20.5,6.4-37.8,19.2-51.9
				c12.8-14.1,28.8-21.2,47.9-21.2c14.4,0,26.9,5.5,37.5,16.5V41.3c0-2.8,1.4-4.3,4.3-4.3H977.4z M906.9,209.3
				c8.9,0,16.3-3.4,22.3-10.1c6-6.7,9-14.8,9-24.3c0-9.3-3-17.3-9-24c-6-6.7-13.4-10.1-22.3-10.1c-9.1,0-16.6,3.3-22.6,9.8
				c-6,6.5-9,14.6-9,24.3c0,9.9,3,18.1,9,24.6C890.3,206,897.8,209.3,906.9,209.3z"/>
			<path class="st4" d="M1145.5,105.2c2.8,0,4.3,1.4,4.3,4.3v130.8c0,2.8-1.4,4.3-4.3,4.3h-31c-2.5,0-3.9-1.4-4.3-4.3l-0.9-10.2
				c-10.8,12.1-24.1,18.2-39.8,18.2c-19.1,0-35.1-7.1-47.9-21.2c-12.8-14.1-19.2-31.4-19.2-51.9c0-20.5,6.4-37.8,19.2-51.9
				c12.8-14.1,28.8-21.2,47.9-21.2c15.4,0,28.6,6.4,39.8,19l0.9-11.7c0.4-2.8,1.8-4.3,4.3-4.3H1145.5z M1074.9,209.3
				c8.9,0,16.3-3.4,22.3-10.1c6-6.7,9-14.8,9-24.3c0-9.3-3-17.3-9-24c-6-6.7-13.4-10.1-22.3-10.1c-9.1,0-16.6,3.3-22.6,9.8
				c-6,6.5-9,14.6-9,24.3c0,9.9,3,18.1,9,24.6C1058.3,206,1065.9,209.3,1074.9,209.3z"/>
		</g>
	</g>
</g>
</svg>
