<?xml version="1.0" encoding="utf-8"?>
<!-- Generator: Adobe Illustrator 25.2.1, SVG Export Plug-In . SVG Version: 6.00 Build 0)  -->
<svg version="1.1" id="Layer_1" xmlns="http://www.w3.org/2000/svg" xmlns:xlink="http://www.w3.org/1999/xlink" x="0px" y="0px"
	 viewBox="0 0 360 360" style="enable-background:new 0 0 360 360;" xml:space="preserve">
<style type="text/css">
	.st0{fill:#FFFFFF;}
</style>
<g>
	<g>
		<path class="st0" d="M180.1,247.9c-30.3,0-55.2,24.6-55.2,55.2c0,24.9,16.2,46.2,39.8,52.9c1.3-1.5,2.1-3.3,2.1-5.4
			c0-2.3-0.8-4.4-2.6-5.9c-8.2-8.2-8.2-21.6,0-29.8c3.8-3.8,9.2-6.2,14.9-6.2c5.6,0,11,2.3,14.9,6.2c8.2,8.2,8.2,21.6,0,29.8
			c-3.3,3.3-3.3,8.5,0,11.8c23.9-6.2,41.1-28.2,41.1-53.4C235.3,272.5,210.4,247.9,180.1,247.9z"/>
		<path class="st0" d="M303,125c-30.3,0-55.2,24.6-55.2,55.2c0,30.3,24.6,55.2,55.2,55.2c25.1,0,47-17.2,53.4-41.1
			c-1.3-1-3.1-1.5-4.9-1.5c-2.3,0-4.4,0.8-5.9,2.6c-3.8,3.8-9.2,6.2-14.9,6.2s-11-2.3-14.9-6.2c-3.8-3.8-6.2-9.2-6.2-14.9
			c0-5.6,2.3-11,6.2-14.9c3.8-3.8,9.2-6.2,14.9-6.2s11,2.3,14.9,6.2c1.5,1.5,3.6,2.6,5.9,2.6c1.8,0,3.3-0.5,4.9-1.5
			C350,142.2,328.2,125,303,125z"/>
		<path class="st0" d="M57.2,235.3c30.3,0,55.2-24.6,55.2-55.2c0-30.3-24.6-55.2-55.2-55.2c-24.9,0-47,17.2-53.4,41.1
			c1.5,1.5,3.6,2.3,5.9,2.3s4.4-0.8,5.9-2.6c3.8-3.8,9.2-6.2,14.9-6.2c5.6,0,11,2.3,14.9,6.2c8.2,8.2,8.2,21.6,0,29.8
			c-3.8,3.8-9.2,6.2-14.9,6.2c-5.6,0-11-2.3-14.9-6.2c-1.5-1.5-3.6-2.6-5.9-2.6c-2.1,0-3.8,0.8-5.4,2.1
			C11.1,218.9,32.6,235.3,57.2,235.3z"/>
		<path class="st0" d="M180.1,112.4c30.3,0,55.2-24.6,55.2-55.2c0-24.6-16.2-46.2-39.8-52.9l-0.3,0.3c-1.5,1.5-2.6,3.6-2.6,5.9
			c0,2.3,0.8,4.4,2.6,5.9c8.2,8.2,8.2,21.6,0,29.8c-3.8,3.8-9.2,6.2-14.9,6.2c-5.6,0-11-2.3-14.9-6.2s-6.2-9.2-6.2-14.9
			s2.3-11,6.2-14.9c3.3-3.3,3.3-8.5,0-11.8l-0.3-0.3c-23.6,6.7-40,28.2-40,52.9C125,87.8,149.9,112.4,180.1,112.4z"/>
		<path class="st0" d="M303,247.9c-37.5,0-67.7-30.3-67.7-67.7c0-37.5,30.3-67.7,67.7-67.7c30.3,0,55.2-24.6,55.2-55.2
			c0-9.5-2.6-18.7-7.2-27.2c-4.6,0-8.2,3.8-8.2,8.5c0,11.5-9.5,21-21,21s-21-9.5-21-21s9.5-21,21-21c4.6,0,8.2-3.6,8.5-8.2
			C322,4.6,312.5,2.1,303,2.1c-30.3,0-55.2,24.6-55.2,55.2c0,37.5-30.3,67.7-67.7,67.7s-67.7-30.3-67.7-67.7
			c0-30.3-24.6-55.2-55.2-55.2c-10.3,0-20,2.8-28.7,8c0.5,4.1,4.1,7.2,8.2,7.2c11.5,0,21,9.5,21,21s-9.5,21-21,21s-21-9.5-21-21
			c0-4.1-2.8-7.4-6.7-8.2C4.4,38.2,2.1,47.5,2.1,57c0,30.3,24.6,55.2,55.2,55.2c37.5,0,67.7,30.3,67.7,67.7
			c0,37.5-30.3,67.7-67.7,67.7c-30.3,0-55.2,24.6-55.2,55.2c0,10,2.8,19.8,8,28.2c3.3-1,5.9-4.4,5.9-8c0-11.5,9.5-21,21-21
			s21,9.5,21,21s-9.5,21-21,21c-3.8,0-6.9,2.6-8,5.9c8.5,5.1,18.2,8,28.2,8c30.3,0,55.2-24.6,55.2-55.2c0-37.5,30.3-67.7,67.7-67.7
			s67.7,30.3,67.7,67.7c0,30.3,24.6,55.2,55.2,55.2c9.5,0,18.7-2.3,26.9-6.9c-0.8-3.8-4.1-6.7-8.2-6.7c-11.5,0-21-9.5-21-21
			s9.5-21,21-21s21,9.5,21,21c0,4.4,3.1,7.7,7.2,8.2c5.4-8.7,8-18.5,8-28.7C357.9,272.5,333.3,247.9,303,247.9z M205.3,205.8
			c-1.8,1.8-3.8,2.6-6.2,2.8c-4.4,0.3-8.7-2.3-10.3-6.4c-1-2.6-0.8-5.4,0.3-8c0.3-0.5,0.3-0.5-0.3-0.8c-3.1-3.1-5.9-5.9-9-9
			l-0.3-0.3l-0.3,0.3c-3.1,3.1-5.9,5.9-9,9c-0.3,0.3-0.3,0.3,0,0.8c0.8,1.5,1,3.1,1,4.6c-0.3,3.3-1.5,5.9-4.1,7.7
			c-1.3,1-2.8,1.8-4.6,1.8c-5.4,0.8-10.5-3.1-11.3-8.2c-0.5-3.6,0.5-6.7,3.1-9.2c1.8-1.8,4.1-2.6,6.7-2.8c1.5,0,3.1,0.3,4.6,1
			c0.3,0.3,0.3,0.3,0.5,0c3.1-3.1,6.2-6.2,9-9c0,0,0-0.3,0.3-0.3c-3.3-3.3-6.4-6.4-9.5-9.5c-0.3,0.3-0.8,0.3-1.3,0.5
			c-3.8,1.3-7.2,0.5-10.3-2.1c-1.8-1.8-2.8-3.8-3.1-6.4c-0.3-2.8,0.5-5.4,2.3-7.4c1.8-2.1,4.1-3.3,6.7-3.6c4.1-0.3,7.4,1.3,9.5,4.9
			c1,1.5,1.5,3.3,1.5,5.4c0,1.5-0.3,2.8-1,4.1c-0.3,0.3-0.3,0.3,0,0.8c3.1,3.1,5.9,5.9,9,9l0.3,0.3c0.3,0,0.3-0.3,0.5-0.3
			c2.8-2.8,5.6-5.6,8.5-8.5c0.3-0.3,0.3-0.3,0.5-0.5c0.3-0.3,0.3-0.3,0-0.5c-0.5-1-0.8-1.8-0.8-2.8c-0.5-4.1,0.8-7.2,4.1-9.7
			c5.6-4.1,13.9-1.3,15.7,5.6c1.5,5.6-2.1,11.3-7.7,12.6c-2.1,0.5-4.1,0.3-5.9-0.5c-0.3,0-0.3,0-0.5-0.3c-0.3,0-0.3,0-0.3,0
			l-0.3,0.3c-3.1,3.1-5.9,5.9-9,9l-0.3,0.3c0.3-0.3,0.5,0,0.5,0c3.1,3.1,6.2,6.2,9,9c0.3,0.3,0.3,0.3,0.5,0c3.1-1.3,6.2-1.3,9,0.3
			c3.1,1.5,4.9,4.1,5.1,7.7C208.9,200.7,207.8,203.5,205.3,205.8z"/>
	</g>
</g>
</svg>
