<?xml version="1.0" encoding="UTF-8" standalone="no"?>
<!-- Generator: Adobe Illustrator 25.2.1, SVG Export Plug-In . SVG Version: 6.00 Build 0)  -->

<svg
   version="1.1"
   id="Layer_1"
   x="0px"
   y="0px"
   viewBox="0 0 1900 1000"
   xml:space="preserve"
   sodipodi:docname="Wada-RGB_Logo-Full-Alternative-Color_LUMA_SHARE.svg"
   width="1900"
   height="1000"
   inkscape:version="1.4.2 (f4327f4, 2025-05-13)"
   inkscape:export-filename="Wada-RGB_Logo-Full-Alternative-Color_LUMA_SHARE.png"
   inkscape:export-xdpi="150"
   inkscape:export-ydpi="150"
   xmlns:inkscape="http://www.inkscape.org/namespaces/inkscape"
   xmlns:sodipodi="http://sodipodi.sourceforge.net/DTD/sodipodi-0.dtd"
   xmlns="http://www.w3.org/2000/svg"
   xmlns:svg="http://www.w3.org/2000/svg"><defs
   id="defs11" /><sodipodi:namedview
   id="namedview11"
   pagecolor="#12263a"
   bordercolor="#666666"
   borderopacity="1.0"
   inkscape:showpageshadow="2"
   inkscape:pageopacity="0.0"
   inkscape:pagecheckerboard="0"
   inkscape:deskcolor="#d1d1d1"
   inkscape:zoom="0.38346354"
   inkscape:cx="941.41935"
   inkscape:cy="794.0781"
   inkscape:window-width="1920"
   inkscape:window-height="1051"
   inkscape:window-x="-9"
   inkscape:window-y="-9"
   inkscape:window-maximized="1"
   inkscape:current-layer="Layer_1"
   inkscape:export-bgcolor="#12263aff" />
<style
   type="text/css"
   id="style1">
	.st0{fill:#EF5323;}
	.st1{fill:#2CA2DB;}
	.st2{fill:#7FB842;}
	.st3{fill:#FBB315;}
	.st4{fill:#FFFFFF;}
</style>
<g
   id="g11"
   transform="matrix(1.2020905,0,0,1.2020905,257.47565,309.64897)">
	<g
   id="g5">
		<path
   class="st0"
   d="m 157.3,217.5 c -26.4,0 -48,21.4 -48,48 0,21.7 14.1,40.2 34.6,46 1.1,-1.3 1.8,-2.9 1.8,-4.7 0,-2 -0.7,-3.8 -2.2,-5.1 -7.1,-7.1 -7.1,-18.8 0,-25.9 3.3,-3.3 8,-5.4 13,-5.4 5,0 9.6,2 13,5.4 7.1,7.1 7.1,18.8 0,25.9 -2.9,2.9 -2.9,7.4 0,10.3 20.8,-5.4 35.7,-24.6 35.7,-46.5 0.1,-26.6 -21.5,-48 -47.9,-48 z"
   id="path1" />
		<path
   class="st1"
   d="m 264.3,110.5 c -26.4,0 -48,21.4 -48,48 0,26.4 21.4,48 48,48 21.9,0 40.9,-15 46.5,-35.7 -1.1,-0.9 -2.7,-1.3 -4.2,-1.3 -2,0 -3.8,0.7 -5.1,2.2 -3.3,3.3 -8,5.4 -13,5.4 -5,0 -9.6,-2 -13,-5.4 -3.3,-3.3 -5.4,-8 -5.4,-13 0,-4.9 2,-9.6 5.4,-13 3.3,-3.3 8,-5.4 13,-5.4 5,0 9.6,2 13,5.4 1.3,1.3 3.1,2.2 5.1,2.2 1.6,0 2.9,-0.4 4.2,-1.3 -5.6,-21.1 -24.6,-36.1 -46.5,-36.1 z"
   id="path2" />
		<path
   class="st2"
   d="m 50.4,206.5 c 26.4,0 48,-21.4 48,-48 0,-26.4 -21.4,-48 -48,-48 -21.7,0 -40.9,15 -46.5,35.7 1.3,1.3 3.1,2 5.1,2 2,0 3.8,-0.7 5.1,-2.2 3.3,-3.3 8,-5.4 13,-5.4 4.9,0 9.6,2 13,5.4 7.1,7.1 7.1,18.8 0,25.9 -3.3,3.3 -8,5.4 -13,5.4 -4.9,0 -9.6,-2 -13,-5.4 -1.3,-1.3 -3.1,-2.2 -5.1,-2.2 -1.8,0 -3.3,0.7 -4.7,1.8 5.9,20.7 24.6,35 46.1,35 z"
   id="path3" />
		<path
   class="st3"
   d="m 157.3,99.6 c 26.4,0 48,-21.4 48,-48 0,-21.4 -14.1,-40.2 -34.6,-46 l -0.2,0.2 c -1.3,1.3 -2.2,3.1 -2.2,5.1 0,2 0.7,3.8 2.2,5.1 7.1,7.1 7.1,18.8 0,25.9 -3.3,3.3 -8,5.4 -13,5.4 -5,0 -9.6,-2 -13,-5.4 -3.4,-3.4 -5.4,-8 -5.4,-13 0,-5 2,-9.6 5.4,-13 2.9,-2.9 2.9,-7.4 0,-10.3 l -0.2,-0.2 c -20.5,5.8 -34.8,24.6 -34.8,46 -0.2,26.7 21.5,48.2 47.8,48.2 z"
   id="path4" />
		<path
   class="st4"
   d="m 264.3,217.5 c -32.6,0 -59,-26.4 -59,-59 0,-32.6 26.4,-59 59,-59 26.4,0 48,-21.4 48,-48 0,-8.3 -2.2,-16.3 -6.3,-23.7 -4,0 -7.1,3.3 -7.1,7.4 0,10 -8.3,18.3 -18.3,18.3 -10,0 -18.3,-8.3 -18.3,-18.3 0,-10 8.3,-18.3 18.3,-18.3 4,0 7.1,-3.1 7.4,-7.1 -7.1,-4 -15.4,-6.3 -23.7,-6.3 -26.4,0 -48,21.4 -48,48 0,32.6 -26.4,59 -59,59 -32.6,0 -59,-26.4 -59,-59 0,-26.4 -21.4,-48 -48,-48 -8.9,0 -17.4,2.5 -25,6.9 0.4,3.6 3.6,6.3 7.1,6.3 10,0 18.3,8.3 18.3,18.3 0,10 -8.3,18.3 -18.3,18.3 -10,0 -18.2,-8.2 -18.2,-18.3 0,-3.6 -2.5,-6.5 -5.8,-7.1 -4,7.1 -6,15.2 -6,23.4 0,26.4 21.4,48 48,48 32.6,0 59,26.4 59,59 0,32.6 -26.4,59 -59,59 -26.4,0 -48,21.4 -48,48 0,8.7 2.5,17.2 6.9,24.6 2.9,-0.9 5.1,-3.8 5.1,-6.9 0,-10 8.3,-18.3 18.3,-18.3 10,0 18.3,8.2 18.3,18.2 0,10 -8.3,18.3 -18.3,18.3 -3.3,0 -6,2.2 -6.9,5.1 7.4,4.5 15.9,6.9 24.6,6.9 26.4,0 48,-21.4 48,-48 0,-32.6 26.4,-59 59,-59 32.6,0 59,26.4 59,59 0,26.4 21.4,48 48,48 8.3,0 16.3,-2 23.4,-6 -0.7,-3.3 -3.6,-5.8 -7.1,-5.8 -10,0 -18.3,-8.3 -18.3,-18.3 0,-10 8.3,-18.3 18.3,-18.3 10,0 18.3,8.3 18.3,18.3 0,3.8 2.7,6.7 6.3,7.1 4.7,-7.6 6.9,-16.1 6.9,-25 -0.1,-26.3 -21.5,-47.7 -47.9,-47.7 z m -85.1,-36.7 c -1.6,1.6 -3.3,2.2 -5.4,2.5 -3.8,0.2 -7.6,-2 -8.9,-5.6 -0.9,-2.2 -0.7,-4.7 0.2,-6.9 0.2,-0.4 0.2,-0.4 -0.2,-0.7 -2.7,-2.7 -5.1,-5.1 -7.8,-7.8 l -0.2,-0.2 -0.2,0.2 c -2.7,2.7 -5.1,5.1 -7.8,7.8 -0.2,0.2 -0.2,0.2 0,0.7 0.7,1.3 0.9,2.7 0.9,4 -0.2,2.9 -1.3,5.1 -3.6,6.7 -1.1,0.9 -2.5,1.6 -4,1.6 -4.7,0.7 -9.2,-2.7 -9.8,-7.1 -0.4,-3.1 0.4,-5.8 2.7,-8 1.6,-1.6 3.6,-2.2 5.8,-2.5 1.3,0 2.7,0.2 4,0.9 0.2,0.2 0.2,0.2 0.4,0 2.7,-2.7 5.4,-5.4 7.8,-7.8 0,0 0,-0.2 0.2,-0.2 -2.9,-2.9 -5.6,-5.6 -8.3,-8.3 -0.2,0.2 -0.7,0.2 -1.1,0.4 -3.3,1.1 -6.3,0.4 -8.9,-1.8 -1.6,-1.6 -2.5,-3.3 -2.7,-5.6 -0.2,-2.5 0.4,-4.7 2,-6.5 1.6,-1.8 3.6,-2.9 5.8,-3.1 3.6,-0.2 6.5,1.1 8.3,4.2 0.9,1.3 1.3,2.9 1.3,4.7 0,1.3 -0.2,2.5 -0.9,3.6 -0.2,0.2 -0.2,0.2 0,0.7 2.7,2.7 5.1,5.1 7.8,7.8 l 0.2,0.2 c 0.2,0 0.2,-0.2 0.4,-0.2 2.5,-2.5 4.9,-4.9 7.4,-7.4 0.2,-0.2 0.2,-0.2 0.4,-0.4 0.2,-0.2 0.2,-0.2 0,-0.4 -0.4,-0.9 -0.7,-1.6 -0.7,-2.5 -0.4,-3.6 0.7,-6.3 3.6,-8.5 4.9,-3.6 12.1,-1.1 13.6,4.9 1.3,4.9 -1.8,9.8 -6.7,10.9 -1.8,0.4 -3.6,0.2 -5.1,-0.4 -0.2,0 -0.2,0 -0.4,-0.2 -0.2,0 -0.2,0 -0.2,0 l -0.2,0.2 c -2.7,2.7 -5.1,5.1 -7.8,7.8 l -0.2,0.2 c 0.2,-0.2 0.4,0 0.4,0 2.7,2.7 5.4,5.4 7.8,7.8 0.2,0.2 0.2,0.2 0.4,0 2.7,-1.1 5.4,-1.1 7.8,0.2 2.7,1.3 4.2,3.6 4.5,6.7 0.5,3 -0.3,5.4 -2.6,7.4 z"
   id="path5" />
	</g>
	<g
   id="g10">
		<g
   id="g9">
			<path
   class="st4"
   d="m 660.2,105.2 c 3.4,0 4.5,1.6 3.4,4.8 l -48.3,131.1 c -0.8,2.3 -2.5,3.4 -5.1,3.4 h -33 c -2.7,0 -4.4,-1.1 -5.1,-3.4 l -30.7,-80.7 -30.7,80.7 c -0.8,2.3 -2.5,3.4 -5.1,3.4 h -32.7 c -2.7,0 -4.4,-1.1 -5.1,-3.4 L 419.5,110 c -1.1,-3.2 0,-4.8 3.4,-4.8 h 33.5 c 2.5,0 4.2,1.1 5.1,3.4 l 29,85.9 30.1,-85.9 c 0.6,-1.7 1.5,-2.7 2.8,-2.8 0.8,-0.4 1.5,-0.6 2.3,-0.6 h 31.6 c 0.8,0 1.5,0.2 2.3,0.6 1.3,0.2 2.3,1.1 2.8,2.8 l 30.4,85.9 28.7,-85.9 c 0.8,-2.3 2.5,-3.4 5.1,-3.4 z"
   id="path6" />
			<path
   class="st4"
   d="m 809.4,105.2 c 2.8,0 4.3,1.4 4.3,4.3 v 130.8 c 0,2.8 -1.4,4.3 -4.3,4.3 h -31 c -2.5,0 -3.9,-1.4 -4.3,-4.3 l -0.9,-10.2 c -10.8,12.1 -24.1,18.2 -39.8,18.2 -19.1,0 -35.1,-7.1 -47.9,-21.2 -12.8,-14.1 -19.2,-31.4 -19.2,-51.9 0,-20.5 6.4,-37.8 19.2,-51.9 12.8,-14.1 28.8,-21.2 47.9,-21.2 15.4,0 28.6,6.4 39.8,19 l 0.9,-11.7 c 0.4,-2.8 1.8,-4.3 4.3,-4.3 h 31 z m -70.5,104.1 c 8.9,0 16.3,-3.4 22.3,-10.1 6,-6.7 9,-14.8 9,-24.3 0,-9.3 -3,-17.3 -9,-24 -6,-6.7 -13.4,-10.1 -22.3,-10.1 -9.1,0 -16.6,3.3 -22.6,9.8 -6,6.5 -9,14.6 -9,24.3 0,9.9 3,18.1 9,24.6 6,6.5 13.5,9.8 22.6,9.8 z"
   id="path7" />
			<path
   class="st4"
   d="m 977.4,37 c 2.8,0 4.3,1.4 4.3,4.3 v 199 c 0,2.8 -1.4,4.3 -4.3,4.3 h -31 c -2.5,0 -3.9,-1.4 -4.3,-4.3 l -0.9,-10.2 c -10.8,12.1 -24.1,18.2 -39.8,18.2 -19.1,0 -35.1,-7.1 -47.9,-21.2 -12.8,-14.1 -19.2,-31.4 -19.2,-51.9 0,-20.5 6.4,-37.8 19.2,-51.9 12.8,-14.1 28.8,-21.2 47.9,-21.2 14.4,0 26.9,5.5 37.5,16.5 V 41.3 c 0,-2.8 1.4,-4.3 4.3,-4.3 z m -70.5,172.3 c 8.9,0 16.3,-3.4 22.3,-10.1 6,-6.7 9,-14.8 9,-24.3 0,-9.3 -3,-17.3 -9,-24 -6,-6.7 -13.4,-10.1 -22.3,-10.1 -9.1,0 -16.6,3.3 -22.6,9.8 -6,6.5 -9,14.6 -9,24.3 0,9.9 3,18.1 9,24.6 6,6.5 13.5,9.8 22.6,9.8 z"
   id="path8" />
			<path
   class="st4"
   d="m 1145.5,105.2 c 2.8,0 4.3,1.4 4.3,4.3 v 130.8 c 0,2.8 -1.4,4.3 -4.3,4.3 h -31 c -2.5,0 -3.9,-1.4 -4.3,-4.3 l -0.9,-10.2 c -10.8,12.1 -24.1,18.2 -39.8,18.2 -19.1,0 -35.1,-7.1 -47.9,-21.2 -12.8,-14.1 -19.2,-31.4 -19.2,-51.9 0,-20.5 6.4,-37.8 19.2,-51.9 12.8,-14.1 28.8,-21.2 47.9,-21.2 15.4,0 28.6,6.4 39.8,19 l 0.9,-11.7 c 0.4,-2.8 1.8,-4.3 4.3,-4.3 h 31 z m -70.6,104.1 c 8.9,0 16.3,-3.4 22.3,-10.1 6,-6.7 9,-14.8 9,-24.3 0,-9.3 -3,-17.3 -9,-24 -6,-6.7 -13.4,-10.1 -22.3,-10.1 -9.1,0 -16.6,3.3 -22.6,9.8 -6,6.5 -9,14.6 -9,24.3 0,9.9 3,18.1 9,24.6 6,6.5 13.6,9.8 22.6,9.8 z"
   id="path9" />
		</g>
	</g>
</g>
</svg>
